<svg xmlns="http://www.w3.org/2000/svg" viewBox="0 0 779 592.7"><g id="katman_2" data-name="katman 2"><g id="katman_1-2" data-name="katman 1"><path d="M675.08,10.77a36.8,36.8,0,0,0-52,0L103.93,529.9a36.78,36.78,0,0,0,52,52L675.08,62.8A36.8,36.8,0,0,0,675.08,10.77Z"/><path d="M732.65,171,681,119.35l-52,52,51.68,51.68a84.93,84.93,0,1,1-120.1,120.11l-51.68-51.69-52,52,51.69,51.69c61.8,61.81,162.34,61.83,224.15,0S794.46,232.85,732.65,171Z"/><path d="M46.35,197.49c-61.8,61.81-61.8,162.38,0,224.18L98,473.36l52-52L98.38,369.65A84.94,84.94,0,0,1,218.51,249.52l51.68,51.69,52-52-51.69-51.69C208.73,135.69,108.16,135.69,46.35,197.49Z"/><circle cx="359.7" cy="509.83" r="48.94"/><circle cx="419.82" cy="82.36" r="48.94"/></g></g></svg>