<svg xmlns="http://www.w3.org/2000/svg" xmlns:xlink="http://www.w3.org/1999/xlink" viewBox="0 0 779 592.7"><defs><style>.cls-1{fill:url(#Adsız_degrade_2);}.cls-2{fill:url(#Adsız_degrade_2-2);}.cls-3{fill:url(#Adsız_degrade_2-3);}.cls-4{fill:url(#Adsız_degrade_2-4);}.cls-5{fill:url(#Adsız_degrade_2-5);}</style><linearGradient id="Adsız_degrade_2" x1="93.15" y1="296.35" x2="685.85" y2="296.35" gradientUnits="userSpaceOnUse"><stop offset="0" stop-color="#26dbb0"/><stop offset="1" stop-color="#27d86e"/></linearGradient><linearGradient id="Adsız_degrade_2-2" x1="456.81" y1="280.46" x2="779" y2="280.46" xlink:href="#Adsız_degrade_2"/><linearGradient id="Adsız_degrade_2-3" x1="0" y1="312.25" x2="322.22" y2="312.25" xlink:href="#Adsız_degrade_2"/><linearGradient id="Adsız_degrade_2-4" x1="310.76" y1="509.83" x2="408.65" y2="509.83" xlink:href="#Adsız_degrade_2"/><linearGradient id="Adsız_degrade_2-5" x1="370.88" y1="82.36" x2="468.77" y2="82.36" xlink:href="#Adsız_degrade_2"/></defs><g id="katman_2" data-name="katman 2"><g id="katman_1-2" data-name="katman 1"><path class="cls-1" d="M675.08,10.77a36.8,36.8,0,0,0-52,0L103.93,529.9a36.78,36.78,0,0,0,52,52L675.08,62.8A36.8,36.8,0,0,0,675.08,10.77Z"/><path class="cls-2" d="M732.65,171,681,119.35l-52,52,51.68,51.68a84.92,84.92,0,1,1-120.1,120.1l-51.68-51.68-52,52,51.69,51.69c61.8,61.81,162.34,61.83,224.15,0S794.46,232.85,732.65,171Z"/><path class="cls-3" d="M150.07,421.33,98.38,369.65A84.94,84.94,0,0,1,218.51,249.52l51.68,51.69,52-52-51.69-51.69c-61.8-61.8-162.37-61.8-224.18,0s-61.8,162.37,0,224.18L98,473.36Z"/><circle class="cls-4" cx="359.7" cy="509.83" r="48.94"/><circle class="cls-5" cx="419.82" cy="82.36" r="48.94"/></g></g></svg>