<svg xmlns="http://www.w3.org/2000/svg" viewBox="0 0 16 22"><g id="katman_2" data-name="katman 2"><g id="katman_1-2" data-name="katman 1"><path d="M1.1,15.05a7.86,7.86,0,0,1-.82-2,7.46,7.46,0,0,1-.28-2,7.82,7.82,0,0,1,2.33-5.7A7.66,7.66,0,0,1,8,3h.18L6.58,1.4,8,0l4,4L8,8,6.58,6.6,8.18,5H8A5.78,5.78,0,0,0,3.75,6.76,5.86,5.86,0,0,0,2,11.05a5.53,5.53,0,0,0,.15,1.28,5.81,5.81,0,0,0,.45,1.22ZM8,22,4,18l4-4,1.4,1.4L7.83,17H8a5.78,5.78,0,0,0,4.25-1.76A5.86,5.86,0,0,0,14,11a5.38,5.38,0,0,0-.15-1.27,5.69,5.69,0,0,0-.45-1.23L14.9,7a8.29,8.29,0,0,1,.83,2A7.85,7.85,0,0,1,16,11a7.81,7.81,0,0,1-2.32,5.7A7.68,7.68,0,0,1,8,19H7.83l1.6,1.6Z"/></g></g></svg>