<svg xmlns="http://www.w3.org/2000/svg" viewBox="0 0 18 18"><g id="katman_2" data-name="katman 2"><g id="katman_1-2" data-name="katman 1"><path d="M17,18a15,15,0,0,1-6.17-1.36,18.45,18.45,0,0,1-5.55-3.86A18.55,18.55,0,0,1,1.36,7.23,15,15,0,0,1,0,1.05,1,1,0,0,1,1.05,0H5.1a1,1,0,0,1,.63.24A.9.9,0,0,1,6.05.8L6.7,4.3a1.88,1.88,0,0,1,0,.68,1.08,1.08,0,0,1-.28.47L4,7.9A11.76,11.76,0,0,0,5.16,9.69a18.1,18.1,0,0,0,1.52,1.66A15.73,15.73,0,0,0,8.3,12.79,17.14,17.14,0,0,0,10.1,14l2.35-2.35a1.48,1.48,0,0,1,.59-.34,1.73,1.73,0,0,1,.71-.06l3.45.7a1.25,1.25,0,0,1,.58.36.88.88,0,0,1,.22.59v4A1,1,0,0,1,17,18ZM3,6,4.68,4.35,4.25,2H2a20,20,0,0,0,.35,2A10.56,10.56,0,0,0,3,6Zm9,9a13.24,13.24,0,0,0,2,.68A13.1,13.1,0,0,0,16,16v-2.2l-2.35-.47Z"/></g></g></svg>