<svg xmlns="http://www.w3.org/2000/svg" viewBox="0 0 20 20"><g id="katman_2" data-name="katman 2"><g id="katman_1-2" data-name="katman 1"><path d="M10,15a1,1,0,1,0-.71-.29A1,1,0,0,0,10,15ZM9,11h2V5H9Zm1,9a9.68,9.68,0,0,1-3.9-.79A10,10,0,0,1,.79,13.9,9.68,9.68,0,0,1,0,10,9.68,9.68,0,0,1,.79,6.1,10,10,0,0,1,6.1.79,9.68,9.68,0,0,1,10,0a9.68,9.68,0,0,1,3.9.79A10,10,0,0,1,19.21,6.1,9.68,9.68,0,0,1,20,10a9.68,9.68,0,0,1-.79,3.9,9.87,9.87,0,0,1-5.31,5.31A9.68,9.68,0,0,1,10,20Zm0-2a7.73,7.73,0,0,0,5.68-2.32A7.73,7.73,0,0,0,18,10a7.71,7.71,0,0,0-2.32-5.67A7.74,7.74,0,0,0,10,2,7.72,7.72,0,0,0,4.33,4.33,7.72,7.72,0,0,0,2,10a7.74,7.74,0,0,0,2.33,5.68A7.71,7.71,0,0,0,10,18Z"/></g></g></svg>