<svg xmlns="http://www.w3.org/2000/svg" viewBox="0 0 16 20"><g id="katman_2" data-name="katman 2"><g id="katman_1-2" data-name="katman 1"><path d="M8,10a2,2,0,0,0,2-2A2,2,0,0,0,8,6,2,2,0,0,0,6,8a2,2,0,0,0,2,2Zm0,7.35a27.9,27.9,0,0,0,4.53-5.09A7.77,7.77,0,0,0,14,8.2a6,6,0,0,0-1.74-4.46A5.79,5.79,0,0,0,8,2,5.79,5.79,0,0,0,3.74,3.74,6,6,0,0,0,2,8.2a7.71,7.71,0,0,0,1.48,4.06A27.42,27.42,0,0,0,8,17.35ZM8,20a33,33,0,0,1-6-6.36A9.86,9.86,0,0,1,0,8.2a7.71,7.71,0,0,1,2.41-6A8,8,0,0,1,8,0a8,8,0,0,1,5.59,2.23A7.71,7.71,0,0,1,16,8.2a9.86,9.86,0,0,1-2,5.44A33,33,0,0,1,8,20Z"/></g></g></svg>