<svg xmlns="http://www.w3.org/2000/svg" viewBox="0 0 16 16"><g id="katman_2" data-name="katman 2"><g id="katman_1-2" data-name="katman 1"><path d="M8,8A3.84,3.84,0,0,1,5.18,6.83,3.85,3.85,0,0,1,4,4,3.81,3.81,0,0,1,5.18,1.18,3.81,3.81,0,0,1,8,0a3.85,3.85,0,0,1,2.83,1.18A3.84,3.84,0,0,1,12,4a3.88,3.88,0,0,1-1.17,2.83A3.88,3.88,0,0,1,8,8ZM0,16V13.2a3,3,0,0,1,1.6-2.65A14.62,14.62,0,0,1,4.75,9.39a13.74,13.74,0,0,1,6.5,0,14.62,14.62,0,0,1,3.15,1.16A3,3,0,0,1,16,13.2V16Zm2-2H14v-.8a1,1,0,0,0-.14-.5.93.93,0,0,0-.36-.35,12.84,12.84,0,0,0-2.72-1A11.44,11.44,0,0,0,8,11a11.3,11.3,0,0,0-2.77.34,12.72,12.72,0,0,0-2.73,1,.93.93,0,0,0-.36.35,1,1,0,0,0-.14.5ZM8,6a1.93,1.93,0,0,0,1.41-.59A1.93,1.93,0,0,0,10,4a1.93,1.93,0,0,0-.59-1.41,2,2,0,0,0-2.82,0A1.93,1.93,0,0,0,6,4a1.93,1.93,0,0,0,.59,1.41A1.93,1.93,0,0,0,8,6Z"/></g></g></svg>