<svg xmlns="http://www.w3.org/2000/svg" viewBox="0 0 20.1 20"><g id="katman_2" data-name="katman 2"><g id="katman_1-2" data-name="katman 1"><path d="M7.3,20l-.4-3.2a3.14,3.14,0,0,1-.61-.3c-.19-.12-.38-.24-.56-.37l-3,1.25L0,12.63l2.58-2a2,2,0,0,1,0-.34V9.66a1.84,1.84,0,0,1,0-.33L0,7.38,2.75,2.63l3,1.25A5.65,5.65,0,0,1,6.3,3.5a4.2,4.2,0,0,1,.6-.3L7.3,0h5.5l.4,3.2a3.14,3.14,0,0,1,.61.3c.19.12.38.24.57.38l3-1.25L20.1,7.38l-2.57,2c0,.11,0,.22,0,.33v.68a1.4,1.4,0,0,1-.05.34l2.58,2-2.75,4.75-2.95-1.25-.58.37a4.2,4.2,0,0,1-.6.3L12.8,20Zm1.75-2h2l.35-2.65a5.46,5.46,0,0,0,1.43-.59A6.45,6.45,0,0,0,14,13.83l2.47,1,1-1.7-2.15-1.62a3.62,3.62,0,0,0,.17-.74,6.27,6.27,0,0,0,0-1.58,3.38,3.38,0,0,0-.17-.73l2.15-1.63-1-1.7L14,6.2a5.86,5.86,0,0,0-1.22-1,5.46,5.46,0,0,0-1.43-.59L11.05,2h-2L8.73,4.65a5.39,5.39,0,0,0-1.44.59,5.78,5.78,0,0,0-1.21.94l-2.48-1-1,1.7,2.15,1.6a3.41,3.41,0,0,0-.18.75,6.73,6.73,0,0,0,0,.8,6.53,6.53,0,0,0,0,.78,3.41,3.41,0,0,0,.18.75L2.63,13.15l1,1.7,2.48-1a5.56,5.56,0,0,0,1.21,1,5.39,5.39,0,0,0,1.44.59Zm1-4.5A3.48,3.48,0,0,0,13.6,10a3.5,3.5,0,0,0-3.5-3.5A3.48,3.48,0,0,0,6.6,10a3.43,3.43,0,0,0,1,2.48A3.39,3.39,0,0,0,10.1,13.5Z"/></g></g></svg>